# xmcd
# Track frame offsets:
# 150
# 3252
# 18292
# 33868
# 36939
# 44691
# 48658
# 55365
# 59262
# 62123
# 68152
# 76712
# 91151
# 106184
# 123206
# 137403
# 156847
# 173193
# 185317
# 199414
# 212684
# 224703
# 237266
# 253795
# 267410
# 280280
# 298943
#
# Disc length: 4032 seconds
# Revision: 0
# Processed by: cddbd v1.4PL0 Copyright (c) Steve Scherf et al.
# Submitted via: VisiTrax 2.9.5.181 - For more info visit www.synapsa.com
#
DISCID=900fbe1b
DTITLE=Various Artist - All Star Jams
DYEAR=2003
DGENRE=Hip Hop
TTITLE0=Various Artist - Intro
TTITLE1=Missy - Gossip Folks
TTITLE2=Trina - B R Right
TTITLE3=Avant - Making Good Love
TTITLE4=Jay Z - Get This Mony
TTITLE5=Issyss - Single For the Rewst of my life
TTITLE6=Truth Hurts - The Trurth Hurts
TTITLE7=Eminem - Cleaning out my closet
TTITLE8=Tela - Tennessee Titans
TTITLE9=Ms Jade - Ching, Ching
TTITLE10=50 Cent - Wanksta remix
TTITLE11=JayZ - U Dont KNow
TTITLE12=The Diplomats - Built this City
TTITLE13=Ginuwine - Hell Yeah
TTITLE14=50 Cents - In Da Club
TTITLE15=Ja Rule - Mesmerize
TTITLE16=Naan Bridage - What you Doin wit Dat
TTITLE17=JayZ - What they Gonna Do
TTITLE18=Freeway - What We Do
TTITLE19=Nas - Made YOu look Remix
TTITLE20=WC - Throw ya Hood Up
TTITLE21=Toni Braxton, Big Tymers - Give it Back
TTITLE22=Kieth Murray - Yeah Yeah U know it
TTITLE23=Erick Sermon - Love Is
TTITLE24=Mario - C'mon remix
TTITLE25=Angie Martinez - Take you home remix
TTITLE26=Various Artist - Outro
EXTD=
EXTT0=
EXTT1=
EXTT2=
EXTT3=
EXTT4=
EXTT5=
EXTT6=
EXTT7=
EXTT8=
EXTT9=
EXTT10=
EXTT11=
EXTT12=
EXTT13=
EXTT14=
EXTT15=
EXTT16=
EXTT17=
EXTT18=
EXTT19=
EXTT20=
EXTT21=
EXTT22=
EXTT23=
EXTT24=
EXTT25=
EXTT26=
PLAYORDER=
